<?xml version="1.0" standalone="no"?>
<!DOCTYPE svg PUBLIC "-//W3C//DTD SVG 20010904//EN"
 "http://www.w3.org/TR/2001/REC-SVG-20010904/DTD/svg10.dtd">
<svg version="1.0" xmlns="http://www.w3.org/2000/svg"
 width="234.000000pt" height="234.000000pt" viewBox="0 0 234.000000 234.000000"
 preserveAspectRatio="xMidYMid meet">
<metadata>
Created by potrace 1.14, written by Peter Selinger 2001-2017
</metadata>
<g transform="translate(0.000000,234.000000) scale(0.100000,-0.100000)"
fill="#000000" stroke="none">
<path d="M630 2260 c-252 -58 -437 -204 -547 -431 -81 -165 -77 -119 -81 -992
l-3 -778 163 1 c176 2 238 9 337 42 261 85 451 291 526 570 l24 90 1 759 0
760 -172 -2 c-124 -1 -194 -7 -248 -19z"/>
<path d="M1585 2261 c-168 -48 -311 -185 -361 -346 -26 -82 -26 -235 0 -320 2
-5 4 -14 4 -19 0 -5 4 -12 9 -15 5 -3 17 -26 28 -51 11 -25 50 -75 90 -115
116 -116 230 -158 424 -157 182 2 293 43 404 153 275 273 174 717 -195 861
-75 29 -315 35 -403 9z"/>
<path d="M1680 1098 c-134 -12 -226 -54 -321 -148 -101 -99 -148 -204 -154
-340 -8 -160 42 -287 154 -398 112 -111 236 -155 429 -151 176 3 294 49 398
155 233 237 193 621 -83 800 -118 76 -238 99 -423 82z"/>
</g>
</svg>
